<svg width="50" height="50" version="1.1" viewBox="0 0 50 50" xmlns="http://www.w3.org/2000/svg">
 <path d="m25 0c-13.809 0-25 11.191-25 25s11.191 25 25 25 25-11.191 25-25-11.191-25-25-25zm5.5176 20.762-0.2832 3.7402h-3.8379v12.988h-4.8438v-12.988h-2.5879v-3.7402h2.5879v-2.5098c0-1.1035 0.029-2.8125 0.8301-3.877 0.8496-1.123 2.0117-1.8848 4.0137-1.8848 3.2617 0 4.6289 0.46875 4.6289 0.46875l-0.6445 3.8281s-1.0743-0.3125-2.0801-0.3125c-1.0059 0-1.9043 0.36133-1.9043 1.3672v2.9199z" style="fill:#005e9c;stroke-width:.097656"/>
</svg>
