<svg width="50" height="50" version="1.1" viewBox="0 0 50 50" xmlns="http://www.w3.org/2000/svg">
 <path d="m31.754 12.109h-13.508c-3.3828 0-6.1367 2.7539-6.1367 6.1367v13.508c0 3.3828 2.7539 6.1367 6.1367 6.1367h13.508c3.3828 0 6.1367-2.7539 6.1367-6.1367v-13.508c0-3.3828-2.7539-6.1367-6.1367-6.1367zm-6.7539 20.918c-4.4258 0-8.0273-3.6016-8.0273-8.0273s3.6016-8.0273 8.0273-8.0273 8.0273 3.6016 8.0273 8.0273-3.6016 8.0273-8.0273 8.0273zm8.2461-14.414c-1.0352 0-1.875-0.83984-1.875-1.877 0-1.0352 0.83985-1.875 1.875-1.875 1.0371 0 1.877 0.83984 1.877 1.875 0 1.0371-0.83985 1.877-1.877 1.877zm-8.2461 1.0938c-2.918 0-5.293 2.375-5.293 5.293s2.375 5.293 5.293 5.293 5.293-2.375 5.293-5.293-2.375-5.293-5.293-5.293zm0-19.707c-13.807 0-25 11.193-25 25s11.193 25 25 25 25-11.193 25-25-11.193-25-25-25zm15.625 31.754c0 4.8906-3.9805 8.8711-8.8711 8.8711h-13.508c-4.8906 0-8.8711-3.9805-8.8711-8.8711v-13.508c0-4.8906 3.9805-8.8711 8.8711-8.8711h13.508c4.8906 0 8.8711 3.9805 8.8711 8.8711z" style="fill:#005e9c;stroke-width:.19531"/>
</svg>
