<svg width="50" height="50" version="1.1" viewBox="0 0 50 50" xmlns="http://www.w3.org/2000/svg">
 <g transform="scale(1.5625)" style="fill:#005e9c;stroke:#005100">
  <path transform="scale(.64)" d="m25 0c-13.789 0-25 11.211-25 25 1.9711e-15 13.789 11.211 25 25 25 13.789 0 25-11.211 25-25 0-13.789-11.211-25-25-25zm-4.3574 3.5586c-1.8178 2.0352-3.9929 5.0191-5.6445 8.9414h-7.957c3.1574-4.5325 7.9852-7.8104 13.602-8.9414zm8.7148 0c5.6164 1.131 10.444 4.4089 13.602 8.9414h-7.957c-1.6517-3.9224-3.8267-6.9062-5.6445-8.9414zm-4.3574 0.029297c1.4449 1.2435 4.387 4.16 6.627 8.9121h-13.254c2.24-4.7521 5.182-7.6686 6.627-8.9121zm-19.773 12.037h8.6367c-0.83123 2.7592-1.3633 5.883-1.3633 9.375s0.53205 6.6158 1.3633 9.375h-8.6367c-1.346-2.8402-2.1016-6.0177-2.1016-9.375 0-3.3573 0.75552-6.5348 2.1016-9.375zm11.893 0h15.762c0.89577 2.6957 1.4941 5.811 1.4941 9.375s-0.59837 6.6793-1.4941 9.375h-15.762c-0.89577-2.6957-1.4941-5.811-1.4941-9.375s0.59837-6.6793 1.4941-9.375zm19.018 0h8.6367c1.346 2.8402 2.1016 6.0177 2.1016 9.375 0 3.3573-0.75552 6.5348-2.1016 9.375h-8.6367c0.83123-2.7592 1.3633-5.883 1.3633-9.375s-0.53205-6.6158-1.3633-9.375zm-29.096 21.875h7.957c1.6517 3.9224 3.8267 6.9062 5.6445 8.9414-5.6164-1.131-10.444-4.4089-13.602-8.9414zm11.332 0h13.254c-2.24 4.7521-5.182 7.6686-6.627 8.9121-1.4449-1.2435-4.387-4.16-6.627-8.9121zm16.629 0h7.957c-3.1574 4.5325-7.9852 7.8104-13.602 8.9414 1.8178-2.0352 3.9929-5.0191 5.6445-8.9414z" style="color-rendering:auto;color:#000000;dominant-baseline:auto;fill:#005e9c;font-feature-settings:normal;font-variant-alternates:normal;font-variant-caps:normal;font-variant-east-asian:normal;font-variant-ligatures:normal;font-variant-numeric:normal;font-variant-position:normal;font-variation-settings:normal;image-rendering:auto;inline-size:0;isolation:auto;mix-blend-mode:normal;shape-margin:0;shape-padding:0;shape-rendering:auto;solid-color:#000000;stop-color:#000000;stroke:none;text-decoration-color:#000000;text-decoration-line:none;text-decoration-style:solid;text-indent:0;text-orientation:mixed;text-transform:none;white-space:normal"/>
 </g>
</svg>
