<svg width="50" height="50" version="1.1" viewBox="0 0 50 50" xmlns="http://www.w3.org/2000/svg">
 <path d="m25 0c-13.809 0-25 11.191-25 25s11.191 25 25 25 25-11.191 25-25-11.191-25-25-25zm-6.9922 35.459h-4.873v-15.596h4.873zm-2.5684-17.549h-0.0391c-1.7676 0-2.9102-1.1914-2.9102-2.7051 0-1.543 1.1816-2.7051 2.9785-2.7051 1.7969 0 2.9004 1.1621 2.9394 2.7051 0.01 1.5039-1.1328 2.7051-2.9688 2.7051zm22.061 17.549h-5.5273v-8.0664c0-2.1094-0.85938-3.5547-2.7637-3.5547-1.4551 0-2.2656 0.97656-2.6367 1.9141-0.13672 0.33203-0.11719 0.80078-0.11719 1.2793v8.4277h-5.4785s0.0684-14.297 0-15.596h5.4785v2.4512c0.32226-1.0742 2.0703-2.5976 4.8633-2.5976 3.4668 0 6.1816 2.2461 6.1816 7.0703z" style="fill:#005e9c;stroke-width:.097656"/>
</svg>
