<svg width="50" height="50" version="1.1" viewBox="0 0 50 50" xmlns="http://www.w3.org/2000/svg">
 <g transform="scale(.097656)" style="fill:#005e9c">
  <g style="fill:#005e9c">
   <path d="m256 0c-107.66 0-195.25 87.586-195.25 195.24 0 56.66 16.898 115.29 50.225 174.26 28.99 51.297 65.23 93.242 90.526 119.4 14.406 14.895 33.759 23.097 54.494 23.097s40.088-8.202 54.494-23.098c25.296-26.155 61.536-68.101 90.526-119.4 33.327-58.971 50.225-117.6 50.225-174.26 1e-3 -107.66-87.586-195.24-195.24-195.24zm0 270.38c-41.43 0-75.136-33.706-75.136-75.136s33.705-75.136 75.136-75.136c41.43 0 75.136 33.706 75.136 75.136s-33.706 75.136-75.136 75.136z" style="fill:#005e9c"/>
  </g>
 </g>
</svg>
