<svg width="400" height="185.78" data-name="Capa 1" version="1.1" viewBox="0 0 400 185.78" xmlns="http://www.w3.org/2000/svg">
 <path d="m263.78 37.62c-0.475-0.438-0.763-0.692-1.037-0.959-11.918-11.613-23.834-23.229-35.758-34.836-0.295-0.288-0.669-0.665-1.027-0.688-1.277-0.084-2.563-0.033-3.892-0.033v63.241h13.707v-35.645c0.535 0.489 0.876 0.787 1.202 1.101 11.742 11.346 23.481 22.694 35.225 34.037 0.305 0.295 0.643 0.752 0.989 0.774 1.425 0.088 2.858 0.037 4.269 0.037v-63.191h-13.677v36.163z" fill="#005e9c"/>
 <path d="m302.07 64.592v-27.81h24.72v-11.705h-37.35v39.515z" fill="#005e9c"/>
 <path d="m197.59 64.622h12.551v-63.442h-12.551z" fill="#005e9c"/>
 <path d="m395.7 16.644c-6.66-10.682-16.317-16.358-26.311-16.529-9.519-0.024-15.851 1.665-21.407 5.574-9.404 6.617-14.637 15.562-14.651 27.264-9e-3 7.907 2.532 14.886 7.697 20.861 5.768 6.672 12.992 10.706 21.858 11.593 7.904 0.79 15.375-0.6 22.003-5.073 9.228-6.229 14.595-14.807 15.075-26.127 0.266-6.262-0.946-12.241-4.264-17.562zm-16.944 32.226c-3.83 3.036-8.28 4.253-13.133 4.019-5.247-0.253-9.726-2.257-13.305-6.107-4.109-4.42-5.783-9.697-5.329-15.682 0.437-5.751 2.956-10.433 7.38-14.075 6.269-5.16 16.049-5.687 22.848-1.243 6.167 4.031 9.091 9.832 9.185 16.31-0.048 7.334-2.521 12.714-7.647 16.778z" fill="#005e9c"/>
 <path d="m289.44 12.946h39.973v-11.786h-39.973z" fill="#005e9c"/>
 <path d="m150.37 58.066c5.745 5.536 12.601 8.015 20.567 7.476 5.201-0.352 9.718-2.299 13.523-5.829 4.812-4.464 6.233-10.055 5.276-16.383-0.509-3.367-1.704-6.446-4.189-8.86-3.237-3.145-6.957-5.581-11.156-7.288-2.536-1.031-4.974-2.268-7.105-4.017-2.095-1.72-2.552-4.014-1.974-6.504 0.558-2.404 2.289-3.683 4.633-4.253 2.2-0.534 4.245-0.079 6.165 0.965 1.521 0.828 2.967 1.793 4.562 2.768 2.364-3.257 4.765-6.564 7.221-9.948-0.224-0.159-0.377-0.255-0.515-0.368-4.387-3.565-9.307-5.799-15.053-5.82-5.942-0.022-11.243 1.688-15.468 6.055-4.222 4.363-5.422 9.651-4.673 15.515 0.525 4.112 2.197 7.57 5.453 10.288 3.355 2.801 7.107 4.862 11.056 6.666 1.733 0.792 3.385 1.808 4.958 2.89 2.325 1.599 3.196 4.216 2.517 6.966-0.764 3.098-4.025 5.247-7.612 5.068-3.381-0.168-6.342-1.464-9.101-3.305-0.915-0.61-1.765-1.317-2.717-2.035-2.258 3.16-4.501 6.299-6.792 9.506 0.178 0.188 0.296 0.323 0.425 0.446z" fill="#3c3c3b"/>
 <path d="m88.581 48.877c-1.911 2.688-3.804 5.39-5.744 8.057-0.392 0.539-0.396 0.834 0.104 1.311 4.677 4.467 10.23 6.968 16.687 7.343 5.227 0.303 10.165-0.702 14.549-3.736 3.119-2.159 5.66-4.803 7.04-8.427 1.321-3.47 1.439-7.016 0.793-10.622-0.555-3.098-1.644-5.973-3.936-8.221-3.269-3.206-7.085-5.58-11.283-7.435-2.399-1.06-4.708-2.392-6.891-3.849-2.214-1.479-2.93-4.232-2.185-6.812 1.018-3.528 4.719-4.555 7.389-4.238 2.274 0.27 4.172 1.444 6.032 2.674 0.618 0.408 1.218 0.843 1.899 1.317 2.427-3.358 4.807-6.651 7.155-9.901-0.102-0.169-0.124-0.228-0.164-0.268-0.085-0.085-0.178-0.161-0.27-0.238-5.532-4.58-11.817-6.633-18.999-5.547-5.715 0.865-10.356 3.562-13.595 8.393-2.696 4.021-3.164 8.534-2.505 13.21 0.549 3.896 2.1 7.249 5.214 9.847 3.447 2.876 7.303 4.996 11.36 6.867 1.994 0.919 3.851 2.196 5.623 3.508 0.733 0.543 1.268 1.54 1.573 2.439 1.245 3.673-0.743 7.37-4.491 8.521-2.175 0.668-4.337 0.43-6.471-0.211-3.098-0.931-5.784-2.595-8.29-4.764-0.234 0.31-0.419 0.542-0.591 0.783z" fill="#3c3c3b"/>
 <path d="m141.97 64.589v-63.407h-12.561v63.407z" fill="#3c3c3b"/>
 <path d="m92.722 81.357h-3.919v16.277h-2.169v-16.277h-3.919v-2.011h10.007z" fill="#3c3c3b"/>
 <path d="m101.7 93.376c-0.236 2.9-1.934 4.546-4.808 4.546-2.796 0-4.572-1.829-4.572-5.042v-4.311c0-3.188 1.829-5.017 4.624-5.017 2.874 0 4.703 1.829 4.703 5.017v3.057h-7.237v1.255c0 2.09 0.94 3.031 2.534 3.031 1.698 0 2.482-0.784 2.691-2.535h2.064zm-7.29-4.833v1.385h5.199v-1.385c0-2.065-0.967-3.031-2.639-3.031-1.594 0-2.56 0.966-2.56 3.031z" fill="#3c3c3b"/>
 <path d="m103.56 92.932v-4.415c0-3.161 1.776-4.964 4.546-4.964 2.874 0 4.598 1.803 4.677 4.964h-2.064c-0.078-2.011-0.993-2.978-2.613-2.978-1.541 0-2.456 0.967-2.456 2.978v4.415c0 2.038 0.914 2.979 2.456 2.979 1.646 0 2.561-0.941 2.639-2.979h2.064c-0.078 3.188-1.881 4.991-4.703 4.991-2.77 0-4.546-1.803-4.546-4.991z" fill="#3c3c3b"/>
 <path d="m123.74 88.935v8.7h-2.038v-8.543c0-2.482-0.679-3.579-2.247-3.579-1.646 0-2.743 1.359-2.743 3.71v8.412h-2.038v-13.743h1.541l0.261 1.621c0.706-1.202 1.881-1.96 3.501-1.96 2.299 0 3.762 1.62 3.762 5.382z" fill="#3c3c3b"/>
 <path d="m125.82 92.853v-4.206c0-3.292 1.855-5.095 4.729-5.095s4.703 1.803 4.703 5.095v4.206c0 3.293-1.829 5.095-4.703 5.095s-4.729-1.802-4.729-5.095zm7.368 0v-4.206c0-2.142-0.993-3.083-2.639-3.083s-2.639 0.941-2.639 3.083v4.206c0 2.143 0.993 3.109 2.639 3.109s2.639-0.966 2.639-3.109z" fill="#3c3c3b"/>
 <path d="m137.47 78.718h2.038v18.917h-2.038z" fill="#3c3c3b"/>
 <path d="m141.67 92.853v-4.206c0-3.292 1.855-5.095 4.729-5.095s4.703 1.803 4.703 5.095v4.206c0 3.293-1.829 5.095-4.703 5.095s-4.729-1.802-4.729-5.095zm7.368 0v-4.206c0-2.142-0.993-3.083-2.639-3.083s-2.639 0.941-2.639 3.083v4.206c0 2.143 0.993 3.109 2.639 3.109s2.639-0.966 2.639-3.109z" fill="#3c3c3b"/>
 <path d="m162.34 83.891v14.554c0 2.561-1.751 4.233-4.494 4.233-2.665 0-4.363-1.594-4.494-4.129h2.012c0.105 1.437 0.993 2.221 2.482 2.221 1.515 0 2.43-0.862 2.43-2.325v-2.377c-0.705 0.705-1.672 1.071-2.795 1.071-2.639 0-4.442-1.856-4.442-4.965v-3.396c0-3.344 1.803-5.226 4.389-5.226 1.307 0 2.378 0.548 3.109 1.568l0.235-1.229zm-2.064 8.283v-3.605c0-2.064-1.071-3.057-2.456-3.057-1.698 0-2.691 0.993-2.691 3.266v3.396c0 2.038 0.993 3.031 2.691 3.031 1.541 0 2.456-0.993 2.456-3.031z" fill="#3c3c3b"/>
 <path d="m166.34 78.588h2.116l-2.325 3.109h-1.751l1.959-3.109zm-1.541 5.303h2.064v13.743h-2.064z" fill="#3c3c3b"/>
 <path d="m178 88.308v9.327h-1.698l-0.183-1.332c-0.653 0.993-1.62 1.672-3.109 1.672-2.508 0-4.285-1.621-4.285-4.259 0-2.718 1.829-4.155 4.86-4.155h2.352v-1.228c0-1.803-0.758-2.796-2.325-2.796-1.332 0-2.299 0.732-2.404 2.116h-2.064c0.105-2.508 1.855-4.102 4.52-4.102 2.77 0 4.337 1.776 4.337 4.756zm-2.064 3.03h-2.377c-1.777 0-2.744 0.836-2.744 2.404 0 1.515 1.019 2.326 2.587 2.326s2.535-0.993 2.535-2.613v-2.116z" fill="#3c3c3b"/>
 <path d="m194.54 88.308v9.327h-1.698l-0.183-1.332c-0.653 0.993-1.62 1.672-3.109 1.672-2.508 0-4.285-1.621-4.285-4.259 0-2.718 1.829-4.155 4.86-4.155h2.352v-1.228c0-1.803-0.758-2.796-2.325-2.796-1.332 0-2.299 0.732-2.404 2.116h-2.064c0.105-2.508 1.855-4.102 4.52-4.102 2.77 0 4.337 1.776 4.337 4.756zm-2.064 3.03h-2.377c-1.777 0-2.744 0.836-2.744 2.404 0 1.515 1.019 2.326 2.587 2.326s2.535-0.993 2.535-2.613v-2.116z" fill="#3c3c3b"/>
 <path d="m196.98 78.718h2.038v18.917h-2.038z" fill="#3c3c3b"/>
 <path d="m206.12 93.481h2.038c0.027 1.515 0.941 2.534 2.692 2.534 1.489 0 2.377-0.758 2.377-2.012 0-3.057-6.924-1.986-6.924-6.662 0-2.299 1.698-3.789 4.311-3.789 2.743 0 4.363 1.751 4.415 4.311h-2.012c-0.026-1.49-0.862-2.404-2.403-2.404-1.411 0-2.247 0.732-2.247 1.907 0 2.9 6.924 1.777 6.924 6.663 0 2.352-1.724 3.945-4.415 3.945-2.953 0-4.729-1.907-4.756-4.494z" fill="#3c3c3b"/>
 <path d="m226.36 93.376c-0.235 2.9-1.933 4.546-4.807 4.546-2.796 0-4.572-1.829-4.572-5.042v-4.311c0-3.188 1.829-5.017 4.625-5.017 2.873 0 4.703 1.829 4.703 5.017v3.057h-7.238v1.255c0 2.09 0.941 3.031 2.535 3.031 1.698 0 2.482-0.784 2.691-2.535h2.064zm-7.29-4.833v1.385h5.2v-1.385c0-2.065-0.967-3.031-2.639-3.031-1.594 0-2.561 0.966-2.561 3.031z" fill="#3c3c3b"/>
 <path d="m235.2 83.761v2.09c-0.497-0.183-1.045-0.288-1.725-0.288-1.829 0-3.031 1.385-3.031 3.789v8.283h-2.038v-13.743h1.542l0.287 1.699c0.706-1.255 1.881-2.012 3.554-2.012 0.548 0 0.993 0.053 1.411 0.183z" fill="#3c3c3b"/>
 <path d="m236.13 83.891h2.169l1.829 7.081c0.313 1.306 0.731 3.239 0.914 4.128h0.13c0.183-0.889 0.601-2.822 0.914-4.128l1.83-7.081h2.168l-3.84 13.743h-2.273z" fill="#3c3c3b"/>
 <path d="m247.2 80.051c0-0.862 0.574-1.437 1.437-1.437 0.836 0 1.437 0.575 1.437 1.437 0 0.81-0.601 1.41-1.437 1.41-0.863 0-1.437-0.574-1.437-1.41zm0.418 3.84h2.064v13.743h-2.064z" fill="#3c3c3b"/>
 <path d="m251.75 92.932v-4.415c0-3.161 1.776-4.964 4.546-4.964 2.873 0 4.598 1.803 4.676 4.964h-2.064c-0.078-2.011-0.993-2.978-2.612-2.978-1.542 0-2.457 0.967-2.457 2.978v4.415c0 2.038 0.914 2.979 2.457 2.979 1.645 0 2.56-0.941 2.638-2.979h2.065c-0.078 3.188-1.881 4.991-4.703 4.991-2.77 0-4.546-1.803-4.546-4.991z" fill="#3c3c3b"/>
 <path d="m262.45 80.051c0-0.862 0.574-1.437 1.437-1.437 0.836 0 1.437 0.575 1.437 1.437 0 0.81-0.601 1.41-1.437 1.41-0.863 0-1.437-0.574-1.437-1.41zm0.418 3.84h2.064v13.743h-2.064z" fill="#3c3c3b"/>
 <path d="m267 92.853v-4.206c0-3.292 1.855-5.095 4.729-5.095s4.703 1.803 4.703 5.095v4.206c0 3.293-1.829 5.095-4.703 5.095s-4.729-1.802-4.729-5.095zm7.368 0v-4.206c0-2.142-0.993-3.083-2.639-3.083s-2.639 0.941-2.639 3.083v4.206c0 2.143 0.993 3.109 2.639 3.109s2.639-0.966 2.639-3.109z" fill="#3c3c3b"/>
 <path d="m293.03 78.718v18.917h-1.542l-0.209-1.28c-0.678 0.941-1.881 1.594-3.161 1.594-2.561 0-4.337-1.881-4.337-5.303v-3.867c0-3.371 1.672-5.226 4.337-5.226 1.097 0 2.168 0.47 2.9 1.306v-6.14h2.012zm-2.012 10.06c0-1.986-0.967-3.293-2.534-3.293-1.725 0-2.613 0.993-2.613 3.293v3.867c0 2.352 0.967 3.37 2.613 3.37 1.437 0 2.534-1.071 2.534-3.344z" fill="#3c3c3b"/>
 <path d="m304.59 93.376c-0.235 2.9-1.933 4.546-4.807 4.546-2.796 0-4.572-1.829-4.572-5.042v-4.311c0-3.188 1.829-5.017 4.625-5.017 2.874 0 4.703 1.829 4.703 5.017v3.057h-7.238v1.255c0 2.09 0.941 3.031 2.535 3.031 1.698 0 2.482-0.784 2.691-2.535h2.064zm-7.29-4.833v1.385h5.2v-1.385c0-2.065-0.967-3.031-2.639-3.031-1.594 0-2.561 0.966-2.561 3.031z" fill="#3c3c3b"/>
 <path d="m312.15 78.718h2.037v18.917h-2.037z" fill="#3c3c3b"/>
 <path d="m325.32 88.308v9.327h-1.699l-0.183-1.332c-0.654 0.993-1.62 1.672-3.109 1.672-2.508 0-4.285-1.621-4.285-4.259 0-2.718 1.829-4.155 4.86-4.155h2.352v-1.228c0-1.803-0.758-2.796-2.326-2.796-1.333 0-2.299 0.732-2.404 2.116h-2.064c0.105-2.508 1.856-4.102 4.521-4.102 2.769 0 4.337 1.776 4.337 4.756zm-2.064 3.03h-2.378c-1.776 0-2.743 0.836-2.743 2.404 0 1.515 1.02 2.326 2.587 2.326s2.535-0.993 2.535-2.613v-2.116z" fill="#3c3c3b"/>
 <path d="m342.28 83.891v14.554c0 2.561-1.751 4.233-4.494 4.233-2.665 0-4.363-1.594-4.494-4.129h2.011c0.105 1.437 0.994 2.221 2.482 2.221 1.515 0 2.43-0.862 2.43-2.325v-2.377c-0.705 0.705-1.672 1.071-2.796 1.071-2.638 0-4.441-1.856-4.441-4.965v-3.396c0-3.344 1.803-5.226 4.39-5.226 1.306 0 2.377 0.548 3.108 1.568l0.236-1.229h1.567zm-2.064 8.283v-3.605c0-2.064-1.071-3.057-2.456-3.057-1.699 0-2.692 0.993-2.692 3.266v3.396c0 2.038 0.993 3.031 2.692 3.031 1.541 0 2.456-0.993 2.456-3.031z" fill="#3c3c3b"/>
 <path d="m353.85 93.376c-0.235 2.9-1.933 4.546-4.807 4.546-2.796 0-4.572-1.829-4.572-5.042v-4.311c0-3.188 1.829-5.017 4.625-5.017 2.873 0 4.703 1.829 4.703 5.017v3.057h-7.238v1.255c0 2.09 0.941 3.031 2.535 3.031 1.698 0 2.482-0.784 2.691-2.535h2.064zm-7.29-4.833v1.385h5.2v-1.385c0-2.065-0.967-3.031-2.639-3.031-1.594 0-2.561 0.966-2.561 3.031z" fill="#3c3c3b"/>
 <path d="m355.44 93.481h2.037c0.027 1.515 0.941 2.534 2.692 2.534 1.489 0 2.377-0.758 2.377-2.012 0-3.057-6.924-1.986-6.924-6.662 0-2.299 1.698-3.789 4.311-3.789 2.743 0 4.363 1.751 4.415 4.311h-2.012c-0.026-1.49-0.862-2.404-2.403-2.404-1.411 0-2.247 0.732-2.247 1.907 0 2.9 6.924 1.777 6.924 6.663 0 2.352-1.724 3.945-4.415 3.945-2.953 0-4.729-1.907-4.755-4.494z" fill="#3c3c3b"/>
 <path d="m372.61 95.858v1.933h-0.863c-2.638 0-4.128-1.672-4.128-4.415v-7.603h-2.038v-1.881h2.038v-3.213h2.038v3.213h2.665v1.881h-2.665v7.603c0 1.646 0.653 2.482 2.142 2.482h0.81z" fill="#3c3c3b"/>
 <path d="m373.94 80.051c0-0.862 0.574-1.437 1.437-1.437 0.836 0 1.437 0.575 1.437 1.437 0 0.81-0.601 1.41-1.437 1.41-0.863 0-1.437-0.574-1.437-1.41zm0.418 3.84h2.064v13.743h-2.064z" fill="#3c3c3b"/>
 <path d="m378.49 92.853v-4.206c0-3.292 1.855-5.095 4.729-5.095s4.703 1.803 4.703 5.095v4.206c0 3.293-1.829 5.095-4.703 5.095s-4.729-1.802-4.729-5.095zm7.368 0v-4.206c0-2.142-0.993-3.083-2.639-3.083s-2.639 0.941-2.639 3.083v4.206c0 2.143 0.993 3.109 2.639 3.109s2.639-0.966 2.639-3.109zm-2.142-14.265h2.116l-2.325 3.109h-1.751z" fill="#3c3c3b"/>
 <path d="m399.19 88.935v8.7h-2.038v-8.543c0-2.482-0.679-3.579-2.247-3.579-1.645 0-2.743 1.359-2.743 3.71v8.412h-2.038v-13.743h1.542l0.261 1.621c0.705-1.202 1.881-1.96 3.501-1.96 2.299 0 3.763 1.62 3.763 5.382z" fill="#3c3c3b"/>
 <path d="m51.881 41.934-17.888-10.327 17.887-10.326c5.42-3.13 7.277-10.06 4.149-15.479-3.13-5.422-10.061-7.274-15.479-4.149l-34.883 20.14c-3.507 2.025-5.667 5.766-5.667 9.814 0 2.358 0.751 4.6 2.056 6.471 2.413-2.467 5.757-3.918 9.288-3.918 2.261 0 4.499 0.601 6.471 1.738l34.883 20.141c1.039 0.601 1.975 1.337 2.793 2.177 0.183-0.263 0.375-0.519 0.538-0.801 3.128-5.42 1.272-12.351-4.147-15.481z" fill="#3c3c3b"/>
 <path d="m11.343 35.79c1.922 0 3.871 0.491 5.657 1.519l34.883 20.141c3.505 2.025 5.665 5.766 5.665 9.814s-2.16 7.789-5.667 9.814l-34.883 20.139c-5.417 3.125-12.349 1.273-15.479-4.149-3.128-5.419-1.272-12.349 4.149-15.479l17.887-10.326-17.888-10.327c-5.419-3.13-7.275-10.06-4.147-15.48 2.099-3.633 5.908-5.667 9.824-5.667z" fill="#005e9c"/>
 <g transform="matrix(.67469 0 0 .67469 115.74 91.498)">
  <path class="cls-2" d="m239.89 54.89c-15.25 0-27.62 12.37-27.62 27.62s12.37 27.62 27.62 27.62 27.62-12.37 27.62-27.62-12.37-27.62-27.62-27.62zm0 44.19c-9.15 0-16.57-7.42-16.57-16.57s7.42-16.57 16.57-16.57 16.57 7.42 16.57 16.57-7.42 16.57-16.57 16.57z" style="fill:#3c3c3b"/>
  <path class="cls-2" d="m181.88 54.89c-15.25 0-27.62 12.37-27.62 27.62s12.37 27.62 27.62 27.62 27.62-12.37 27.62-27.62-12.37-27.62-27.62-27.62zm0 44.19c-9.15 0-16.57-7.42-16.57-16.57s7.42-16.57 16.57-16.57 16.57 7.42 16.57 16.57-7.42 16.57-16.57 16.57z" style="fill:#3c3c3b"/>
  <path class="cls-1" d="m65.88 54.89c-15.25 0-27.62 12.37-27.62 27.62s12.37 27.62 27.62 27.62 27.62-12.37 27.62-27.62-12.37-27.62-27.62-27.62zm0 44.19c-9.15 0-16.57-7.42-16.57-16.57s7.42-16.57 16.57-16.57 16.57 7.42 16.57 16.57-7.42 16.57-16.57 16.57z" style="fill:#005e9c"/>
  <path class="cls-2" d="m145.98 38.26c-3.05 0-5.52 2.47-5.52 5.52v16.57c-12.2-9.15-29.52-6.68-38.67 5.52s-6.68 29.52 5.52 38.67 29.52 6.68 38.67-5.52c3.57-4.77 5.51-10.56 5.52-16.52v-38.72c0-3.05-2.47-5.52-5.52-5.52zm-22.1 60.76c-9.15 0-16.57-7.42-16.57-16.57s7.42-16.57 16.57-16.57 16.57 7.42 16.57 16.57-7.42 16.57-16.57 16.57z" style="fill:#3c3c3b"/>
  <path d="m187.51 114.33a1.3873 1.6268 0 0 0-1.3711 1.6094v22.195a1.3873 1.6268 0 0 0 1.3711 1.6094h85.004a1.3873 1.6268 0 0 0 1.3711-1.6094l0.0391-22.195a1.3873 1.6268 0 0 0-1.3711-1.6094zm5.9434 5.0195h4.6055c1.6904 0 2.9661 0.38459 3.8281 1.1524 0.86878 0.76102 1.3047 1.8786 1.3047 3.3535 0 1.4884-0.43591 2.612-1.3047 3.373-0.86204 0.76103-2.1377 1.1426-3.8281 1.1426h-2.5664v6.0605h-2.0391zm32.619 0.55469h1.8691v3.2129h3.8281v1.4453h-3.8281v6.1426c0 0.92266 0.12387 1.5147 0.37305 1.7774 0.25592 0.26265 0.77042 0.39453 1.5449 0.39453h1.9102v1.5547h-1.9102c-1.4345 0-2.4232-0.26482-2.9688-0.79687-0.54552-0.53878-0.81836-1.5154-0.81836-2.9297v-6.1426h-1.3633v-1.4453h1.3633zm-30.58 1.123v5.666h2.5664c0.9496 0 1.6846-0.24469 2.2031-0.73633 0.51858-0.49163 0.77735-1.1924 0.77735-2.1016 0-0.90245-0.25877-1.6001-0.77735-2.0918-0.51857-0.49163-1.2535-0.73632-2.2031-0.73632zm13.396 1.8184c1.6366 0 2.8578 0.42291 3.666 1.2715 0.80817 0.84858 1.2129 2.1353 1.2129 3.8594v6.4551h-1.8594v-1.7168c-0.42429 0.68694-0.95287 1.1954-1.5859 1.5254-0.63306 0.32326-1.4063 0.48437-2.3223 0.48437-1.1584 0-2.0826-0.32221-2.7695-0.96875-0.6802-0.65327-1.0195-1.5262-1.0195-2.6172 0-1.2729 0.42486-2.2324 1.2734-2.8789 0.8553-0.64653 2.1279-0.9707 3.8184-0.9707h2.6055v-0.18164c0-0.85533-0.28195-1.5138-0.84766-1.9785-0.55899-0.47143-1.3483-0.70898-2.3652-0.70898-0.64654 0-1.2758 0.0775-1.8887 0.23242-0.61286 0.1549-1.2018 0.38746-1.7676 0.69726v-1.7168c0.68021-0.26266 1.3407-0.45798 1.9805-0.58594 0.6398-0.1347 1.263-0.20117 1.8691-0.20117zm14.314 0c0.12796 0 0.26893 9e-3 0.42383 0.0293 0.1549 0.0135 0.32705 0.0367 0.51562 0.0703l0.01 1.9102c-0.20878-0.12122-0.43832-0.20979-0.6875-0.26367-0.24245-0.0606-0.51032-0.0898-0.80664-0.0898-1.0506 0-1.8601 0.34235-2.4258 1.0293-0.55899 0.68021-0.8379 1.6618-0.8379 2.9414v5.959h-1.8691v-11.314h1.8691v1.7578c0.39062-0.68694 0.89907-1.1954 1.5254-1.5254 0.62633-0.33673 1.3875-0.5039 2.2832-0.5039zm16.467 0c1.2998 0 2.2825 0.40277 2.9492 1.2109 0.66674 0.80144 1 1.9844 1 3.5469v6.8281h-1.8594v-6.7676c0-1.0708-0.20745-1.8722-0.625-2.4043s-1.0438-0.79883-1.8789-0.79883c-1.0035 0-1.7958 0.32114-2.375 0.96094-0.57918 0.6398-0.86914 1.5107-0.86914 2.6152v6.3945h-1.8691v-11.314h1.8691v1.7578c0.4445-0.6802 0.96701-1.1886 1.5664-1.5254 0.60612-0.33673 1.3038-0.5039 2.0918-0.5039zm12.395 0c1.522 0 2.7252 0.49134 3.6074 1.4746 0.88898 0.97654 1.332 2.3066 1.332 3.9902v0.9082h-8.5449c0.0808 1.2796 0.46344 2.2562 1.1504 2.9297 0.69367 0.66674 1.6562 1 2.8887 1 0.71388 0 1.4055-0.0866 2.0723-0.26172 0.67347-0.1751 1.34-0.43885 2-0.78906v1.7578c-0.66674 0.28286-1.3504 0.49832-2.0508 0.64649-0.70041 0.14816-1.4102 0.22265-2.1309 0.22265-1.8049 0-3.2376-0.52555-4.2949-1.5762-1.0506-1.0506-1.5762-2.4703-1.5762-4.2617 0-1.852 0.49937-3.32 1.4961-4.4043 1.0035-1.091 2.3536-1.6367 4.0508-1.6367zm13.598 0c0.12796 0 0.26893 9e-3 0.42383 0.0293 0.1549 0.0135 0.32705 0.0367 0.51563 0.0703l0.01 1.9102c-0.20877-0.12122-0.43831-0.20979-0.6875-0.26367-0.24245-0.0606-0.51031-0.0898-0.80664-0.0898-1.0506 0-1.8601 0.34235-2.4258 1.0293-0.55899 0.68021-0.83789 1.6618-0.83789 2.9414v5.959h-1.8691v-11.314h1.8691v1.7578c0.39061-0.68694 0.89906-1.1954 1.5254-1.5254 0.62633-0.33673 1.3875-0.5039 2.2832-0.5039zm-13.578 1.5742c-1.0372 0-1.8678 0.29297-2.4941 0.8789-0.6196 0.58592-0.97603 1.4125-1.0703 2.4766l6.627-0.01c-0.0135-1.017-0.30039-1.8294-0.85938-2.4356-0.55224-0.60613-1.2872-0.91016-2.2031-0.91015zm-42.023 4.3242c-1.5018 0-2.5439 0.17216-3.123 0.51563-0.57918 0.34347-0.86718 0.92944-0.86718 1.7578 0 0.66 0.21546 1.1856 0.64648 1.5762 0.43776 0.38388 1.0298 0.57618 1.7773 0.57618 1.0304 0 1.855-0.36446 2.4746-1.0918 0.62633-0.73409 0.93946-1.7077 0.93946-2.9199v-0.41407z" style="fill:#035f9c;stroke-width:.42439"/>
 </g>
</svg>
