<svg width="50" height="50" version="1.1" viewBox="0 0 50 50" xmlns="http://www.w3.org/2000/svg">
 <g transform="matrix(.097656 0 0 .097656 -1.3974e-5 6.7011e-5)" style="fill:#005e9c">
  <path class="st0" d="m94.811 21.696c-35.18 22.816-42.091 94.135-28.809 152.26 10.344 45.266 32.336 105.99 69.42 163.16 34.886 53.79 83.557 102.02 120.67 129.93 47.657 35.832 115.59 58.608 150.77 35.792 17.789-11.537 44.218-43.058 45.424-48.714 0 0-15.498-23.896-18.899-29.14l-51.972-80.135c-3.862-5.955-28.082-0.512-40.386 6.457-16.597 9.404-31.882 34.636-31.882 34.636-11.38 6.575-20.912 0.024-40.828-9.142-24.477-11.262-51.997-46.254-73.9-77.947-20.005-32.923-40.732-72.322-41.032-99.264-0.247-21.922-2.341-33.296 8.304-41.006 0 0 29.272-3.666 44.627-14.984 11.381-8.392 26.228-28.286 22.366-34.242l-51.972-80.134c-3.401-5.244-18.899-29.14-18.899-29.14-5.657-1.205-45.216 10.071-63.005 21.608z" style="fill:#005e9c"/>
 </g>
</svg>
