<svg width="50" height="50" version="1.1" viewBox="0 0 50 50" xmlns="http://www.w3.org/2000/svg">
 <g transform="matrix(.89255 0 0 .89255 -7.1308 .016768)" style="fill:#005e9c">
  <path class="cls-1" d="m18.87 28.44c0.2 0.21 0.41 0.4 0.63 0.6a10.59 10.59 0 0 0 14.15 0c0.22-0.2 0.43-0.39 0.62-0.6s0.4-0.43 0.58-0.65a10.64 10.64 0 1 0-16.55 0c0.18 0.21 0.38 0.44 0.57 0.65z" style="fill:#005e9c"/>
  <path class="cls-1" d="m41.63 25.76c0.17 0.18 0.35 0.35 0.53 0.52a9 9 0 0 0 12.05 0c0.19-0.17 0.36-0.34 0.53-0.52a6.41 6.41 0 0 0 0.49-0.55 9 9 0 0 0-7-14.73 9 9 0 0 0-7 14.73c0.07 0.19 0.23 0.38 0.4 0.55z" style="fill:#005e9c"/>
  <path class="cls-1" d="m9.49 45.52h34.17a1.57 1.57 0 0 0 1.17-0.52 1.24 1.24 0 0 0 0.31-1 18.77 18.77 0 0 0-9.9-14.22 12.25 12.25 0 0 1-17.33 0 18.77 18.77 0 0 0-9.91 14.22 1.25 1.25 0 0 0 0.31 1 1.57 1.57 0 0 0 1.18 0.52z" style="fill:#005e9c"/>
  <path class="cls-1" d="m9.49 45.52h34.17a1.57 1.57 0 0 0 1.17-0.52 1.24 1.24 0 0 0 0.31-1 18.77 18.77 0 0 0-9.9-14.22 12.25 12.25 0 0 1-17.33 0 18.77 18.77 0 0 0-9.91 14.22 1.25 1.25 0 0 0 0.31 1 1.57 1.57 0 0 0 1.18 0.52z" style="fill:#005e9c"/>
  <path class="cls-1" d="m64 39a16 16 0 0 0-8.42-12.11 10.41 10.41 0 0 1-14.76 0 16.59 16.59 0 0 0-3.13 2.16 18.81 18.81 0 0 1 8.26 11.24h16.78a1.33 1.33 0 0 0 1-0.44 1.06 1.06 0 0 0 0.27-0.85z" style="fill:#005e9c"/>
 </g>
</svg>
